<svg xmlns="http://www.w3.org/2000/svg" viewBox="0 0 24 24">
  <path id="a" d="M18.287 11.121C19.875 10 21 8.103 21 6.028 21 3.082 19.082.077 13.907 0H2v2.042c1.996 0 3 .751 3 2.683v14.667C5 21.081 4.442 22 2 22v2h11.123C19.457 24 22 20.401 22 16.962c0-2.538-1.417-4.67-3.713-5.841zM10 3h2.094c2.357 0 4.126 1.063 4.126 3.375C16.22 8.41 14.768 10 12.707 10H10V3zm2.701 18H10v-8h2.781c2.26.024 3.927 1.636 3.927 3.667 0 2.008-1.226 4.333-4.007 4.333z"/>
  <path id="b" d="M9.565 20.827c-.361.732-.068 1.173.655 1.173H12v2H3v-2h.897c1.356 0 1.673-.916 2.157-1.773l8.349-16.89C14.806 2.485 14.254 2 13.548 2H12V0h9v2h-.84c-1.169 0-1.596.646-2.06 1.516L9.565 20.827z"/>
  <symbol id="bold">
    <use href="#a"/>
  </symbol>
  <symbol id="italic">
    <use href="#b"/>
  </symbol>
</svg>
