<?xml version="1.0" encoding="iso-8859-1"?>
<!-- Generator: Adobe Illustrator 19.0.0, SVG Export Plug-In . SVG Version: 6.00 Build 0)  -->
<svg version="1.1" id="Layer_1" xmlns="http://www.w3.org/2000/svg" xmlns:xlink="http://www.w3.org/1999/xlink" x="0px" y="0px"
	 viewBox="0 0 512 512" style="enable-background:new 0 0 512 512;" xml:space="preserve">
<g>
	<g>
		<path d="M384.124,0.053L95.183,236.407l15.575,15.575l-32.483,32.482l-4.369,4.409l-0.113,6.177
			c-0.009,0.502-1.301,50.552-34.105,83.357l-10.827,10.827l14.44,14.44L0,446.996l64.952,64.951l43.31-43.311l14.437,14.437
			l10.827-10.827c32.804-32.803,82.855-34.095,83.316-34.104l6.226-0.082l36.884-36.885l15.569,15.569L512,127.928L384.124,0.053z
			 M64.952,468.636l-21.647-21.646l21.65-21.661l21.652,21.652L64.952,468.636z M123.353,440.417l-51.837-51.837
			c15.906-20.253,24.12-42.94,28.365-60.858l84.33,84.33C166.293,416.297,143.606,424.512,123.353,440.417z M216.641,401.176
			L110.758,295.292l21.655-21.655l105.883,105.883L216.641,401.176z M273.257,371.17L140.769,238.683L382.065,41.304l88.675,88.675
			L273.257,371.17z"/>
	</g>
</g>
<g>
</g>
<g>
</g>
<g>
</g>
<g>
</g>
<g>
</g>
<g>
</g>
<g>
</g>
<g>
</g>
<g>
</g>
<g>
</g>
<g>
</g>
<g>
</g>
<g>
</g>
<g>
</g>
<g>
</g>
</svg>
