<svg id="highlighter" xmlns="http://www.w3.org/2000/svg" viewBox="0 0 512 512">
  <path d="M384.124.053L95.183 236.407l15.575 15.575-32.483 32.482-4.369 4.409-.113 6.177c-.009.502-1.301 50.552-34.105 83.357l-10.827 10.827 14.44 14.44L0 446.996l64.952 64.951 43.31-43.311 14.437 14.437 10.827-10.827c32.804-32.803 82.855-34.095 83.316-34.104l6.226-.082 36.884-36.885 15.569 15.569L512 127.928 384.124.053zM64.952 468.636L43.305 446.99l21.65-21.661 21.652 21.652-21.655 21.655zm58.401-28.219L71.516 388.58c15.906-20.253 24.12-42.94 28.365-60.858l84.33 84.33c-17.918 4.245-40.605 12.46-60.858 28.365zm93.288-39.241L110.758 295.292l21.655-21.655L238.296 379.52l-21.655 21.656zm56.616-30.006L140.769 238.683 382.065 41.304l88.675 88.675L273.257 371.17z"/>
</svg>
