<?xml version="1.0" encoding="utf-8"?>
<!-- Svg Vector Icons : http://www.onlinewebfonts.com/icon -->
<!DOCTYPE svg PUBLIC "-//W3C//DTD SVG 1.1//EN" "http://www.w3.org/Graphics/SVG/1.1/DTD/svg11.dtd">
<svg version="1.1" xmlns="http://www.w3.org/2000/svg" xmlns:xlink="http://www.w3.org/1999/xlink" x="0px" y="0px" viewBox="0 0 1000 1000" enable-background="new 0 0 1000 1000" xml:space="preserve">
<metadata> Svg Vector Icons : http://www.onlinewebfonts.com/icon </metadata>
<g><g transform="translate(0.000000,511.000000) scale(0.100000,-0.100000)"><path d="M3930.7,4992.2c-131.2-26.2-264.6-109.3-380.5-238.4c-238.4-266.8-225.3-642.9,32.8-903.2c153.1-150.9,273.4-199,538-207.8l223.1-8.8l-4.4-374l-6.6-371.8l-179.3-39.4C3038.4,2608.4,2032.4,1821.1,1511.9,784.5c-702-1401.8-503-3018,520.5-4227.3c553.3-656.1,1316.5-1104.4,2204.4-1299c199-43.7,288.7-48.1,730.4-48.1c441.8,0,531.4,4.4,732.6,48.1C6922.4-4477.3,7928.4-3696.5,8457.6-2603c594.8,1231.2,494.3,2654.9-271.2,3798.7l-140,210l415.5,476.7c227.4,262.4,422.1,498.6,433,527c10.9,28.4,10.9,70-2.2,100.6c-10.9,28.4-153.1,170.6-319.3,317.1c-255.9,225.2-310.5,264.6-371.8,264.6c-94.1,0-113.7-19.7-553.3-529.2l-352.1-408.9L7093,2289.1c-376.2,251.5-837.6,450.5-1272.8,548.9l-218.7,50.3l-6.6,371.8l-4.4,374l223.1,8.8c192.4,6.6,244.9,15.3,349.9,67.8c142.1,70,273.4,205.6,347.7,360.8c146.5,308.4-24,713-371.8,877l-122.5,56.9l-995,4.4C4475.2,5011.8,3983.1,5003.1,3930.7,4992.2z M6045.4,4622.6c74.4-32.8,102.8-63.4,140-144.3c78.7-181.5,21.9-369.6-137.8-450.5c-67.8-35-166.2-39.4-1080.3-39.4c-914.1,0-1012.5,4.4-1082.5,39.4c-194.6,98.4-220.9,428.6-45.9,566.4c76.5,61.2,203.4,67.8,1139.4,70C5898.9,4666.3,5955.8,4661.9,6045.4,4622.6z M5240.6,3288.5v-349.9h-273.4h-273.4v349.9v349.9h273.4h273.4V3288.5z M8354.8,2558.1l129-115.9l-330.2-382.7l-330.2-382.7l-124.6,122.5c-67.8,67.8-124.7,126.8-124.7,129c-6.6,10.9,627.7,745.8,640.8,745.8C8221.4,2674,8284.9,2621.5,8354.8,2558.1z M5664.9,2525.3C6968.3,2258.5,7991.8,1324.7,8357,62.8c157.5-544.5,179.3-1167.8,63.4-1734.2c-299.6-1456.5-1474-2550-2961.1-2759.9c-277.8-39.4-809.2-28.4-1102.2,21.9c-1465.2,249.3-2595.9,1375.6-2860.5,2843c-52.5,299.6-63.4,874.8-19.7,1148.1c164,1025.7,693.3,1865.5,1528.7,2423.1c446.1,297.4,951.3,481.1,1589.9,570.8C4768.3,2599.7,5455,2566.9,5664.9,2525.3z"/><path d="M2552.9,1219.7c-45.9-59.1-56.9-109.3-32.8-170.6C2531,1022.9,3681.4-42.2,4274-573.6l72.2-63.4L4309-744.2c-102.8-297.4,67.8-662.7,382.7-815.7c332.4-164,745.8,4.4,909.8,369.6c52.5,115.9,59,153.1,50.3,290.9c-30.6,476.7-524.9,782.9-953.5,590.5l-133.4-59l-715.1,651.7C2666.6,1364,2769.4,1276.6,2677.5,1276.6C2616.3,1276.6,2585.7,1263.4,2552.9,1219.7z M5144.4-628.3c35-17.5,85.3-65.6,113.7-107.2c43.7-65.6,50.3-96.2,43.7-223.1c-6.5-118.1-17.5-157.4-61.2-205.6c-220.9-238.4-614.5-98.4-610.1,218.7c0,126.8,10.9,155.3,78.7,240.6C4801.1-591.1,4993.5-556.1,5144.4-628.3z"/><path d="M1686.9-759.5c-107.2-61.2-129-170.6-52.5-269l43.7-56.9h590.5c559.9,0,590.5,2.2,632,43.7c65.6,65.6,65.6,181.5-2.2,251.5c-39.4,41.6-74.4,43.7-605.8,48.1C1909.9-737.6,1717.5-744.2,1686.9-759.5z"/><path d="M7088.6-761.7c-111.5-59-133.4-194.6-48.1-275.5c50.3-45.9,65.6-48.1,629.8-48.1c579.6,0,581.7,0,627.7,50.3c26.3,28.4,48.1,76.5,48.1,107.2c0,179.3-43.7,192.4-682.3,192.4C7322.6-735.4,7117-746.4,7088.6-761.7z"/></g></g>
</svg>